<svg width="243" height="177" viewBox="0 0 243 177" fill="none" xmlns="http://www.w3.org/2000/svg">
<mask id="path-1-inside-1_1612_224" fill="white">
<path fill-rule="evenodd" clip-rule="evenodd" d="M195 15C195 6.71573 188.284 0 180 0H15C6.71573 0 0 6.71573 0 15V162C0 170.284 6.71573 177 15 177H228C236.284 177 243 170.284 243 162V62C243 53.7157 236.284 47 228 47H210C201.716 47 195 40.2843 195 32V15Z"/>
</mask>
<path fill-rule="evenodd" clip-rule="evenodd" d="M195 15C195 6.71573 188.284 0 180 0H15C6.71573 0 0 6.71573 0 15V162C0 170.284 6.71573 177 15 177H228C236.284 177 243 170.284 243 162V62C243 53.7157 236.284 47 228 47H210C201.716 47 195 40.2843 195 32V15Z" fill="#0A0C18"/>
<path d="M15 1H180V-1H15V1ZM1 162V15H-1V162H1ZM228 176H15V178H228V176ZM242 62V162H244V62H242ZM228 46H210V48H228V46ZM196 32V15H194V32H196ZM210 46C202.268 46 196 39.732 196 32H194C194 40.8366 201.163 48 210 48V46ZM244 62C244 53.1634 236.837 46 228 46V48C235.732 48 242 54.268 242 62H244ZM228 178C236.837 178 244 170.837 244 162H242C242 169.732 235.732 176 228 176V178ZM-1 162C-1 170.837 6.16345 178 15 178V176C7.26802 176 1 169.732 1 162H-1ZM180 1C187.732 1 194 7.26801 194 15H196C196 6.16345 188.837 -1 180 -1V1ZM15 -1C6.16344 -1 -1 6.16344 -1 15H1C1 7.26801 7.26801 1 15 1V-1Z" fill="#6DCEFF" fill-opacity="0.7" mask="url(#path-1-inside-1_1612_224)"/>
</svg>
