<svg width="16" height="12" viewBox="0 0 16 12" fill="none" xmlns="http://www.w3.org/2000/svg">
<path d="M0 0.666667C0 0.3 0.3 0 0.666667 0H12C12.3667 0 12.6667 0.3 12.6667 0.666667C12.6667 1.03333 12.3667 1.33333 12 1.33333H0.666667C0.3 1.33333 0 1.03333 0 0.666667ZM12 10.6667H0.666667C0.3 10.6667 0 10.9667 0 11.3333C0 11.7 0.3 12 0.666667 12H12C12.3667 12 12.6667 11.7 12.6667 11.3333C12.6667 10.9667 12.3667 10.6667 12 10.6667ZM15.3333 5.33333H4C3.63333 5.33333 3.33333 5.63333 3.33333 6C3.33333 6.36667 3.63333 6.66667 4 6.66667H15.3333C15.7 6.66667 16 6.36667 16 6C16 5.63333 15.7 5.33333 15.3333 5.33333Z" fill="#F0F3F7"/>
</svg>
