<svg width="239" height="151" viewBox="0 0 239 151" fill="none" xmlns="http://www.w3.org/2000/svg">
<g filter="url(#filter0_b_348_177)">
<path d="M42.4281 0.782043H15.7142L0.785767 15.6388V135.665L15.7142 150.522H42.4281L46.3566 146.612H87.999L91.9275 150.522H157.141L161.07 146.612H198.783L202.712 150.522H222.355L237.283 135.665V15.6388L222.355 0.782043H188.569L184.641 4.69171H46.3566L42.4281 0.782043Z" fill="#031A2A" fill-opacity="0.3"/>
<path d="M42.4281 0.782043H15.7142L0.785767 15.6388V135.665L15.7142 150.522H42.4281L46.3566 146.612H87.999L91.9275 150.522H157.141L161.07 146.612H198.783L202.712 150.522H222.355L237.283 135.665V15.6388L222.355 0.782043H188.569L184.641 4.69171H46.3566L42.4281 0.782043Z" stroke="#6DCEFF" stroke-opacity="0.3" stroke-width="0.813632"/>
</g>
<path d="M222.68 0H198.524L202.712 3.90967H221.569L234.14 16.4206L234.14 34.4051L238.069 39.0967L238.394 15.31L222.68 0Z" fill="#6DCEFF"/>
<path d="M15.3919 150.564L39.8696 150.564L35.6821 146.655L16.8252 146.655L4.25396 134.144L4.25388 116.159L2.25079e-05 111.468L2.04184e-05 135.254L15.3919 150.564Z" fill="#6DCEFF"/>
<path d="M26.981 127H25.8256V116.537H20.8462V115.398H31.8139L31.7163 116.537H26.981V127ZM43.6032 127H33.9861V115.398H43.7008L43.6032 116.537H35.1577V120.637H42.7245L42.6594 121.776H35.1577V125.877H43.7008L43.6032 127ZM57.5268 127L56.1437 124.315H48.6094L47.2425 127H45.9407L51.8965 115.398H52.8729L58.8287 127H57.5268ZM52.3847 116.927L49.1302 123.29H55.623L52.3847 116.927ZM73.9008 127H72.7617V117.692L68.0589 124.673H67.0663L62.3635 117.692V127H61.1919V115.398H62.2171L67.5545 123.387L72.9082 115.398H73.9008V127ZM90.8055 122.558V115.398H91.9609V122.558C91.9609 125.877 89.5525 127.228 86.5421 127.228C83.4991 127.228 81.0745 125.877 81.0745 122.558V115.398H82.2461V122.558C82.2461 125.08 84.1826 126.121 86.5421 126.121C88.8691 126.121 90.8055 125.08 90.8055 122.558ZM95.9894 127H94.8177V115.398C96.8355 115.284 99.0486 115.202 100.253 115.202C103.198 115.202 105.362 115.691 105.362 119.059C105.362 122.427 103.198 122.916 100.253 122.916C99.2764 122.916 97.6329 122.867 95.9894 122.785V127ZM104.191 119.059C104.191 116.651 102.498 116.325 100.22 116.325C99.2764 116.325 97.6492 116.39 95.9894 116.472V121.663C97.6492 121.744 99.2764 121.793 100.22 121.793C102.498 121.793 104.191 121.467 104.191 119.059Z" fill="#6DCEFF"/>
<defs>
<filter id="filter0_b_348_177" x="-44.5336" y="-44.5372" width="327.136" height="240.378" filterUnits="userSpaceOnUse" color-interpolation-filters="sRGB">
<feFlood flood-opacity="0" result="BackgroundImageFix"/>
<feGaussianBlur in="BackgroundImageFix" stdDeviation="22.4562"/>
<feComposite in2="SourceAlpha" operator="in" result="effect1_backgroundBlur_348_177"/>
<feBlend mode="normal" in="SourceGraphic" in2="effect1_backgroundBlur_348_177" result="shape"/>
</filter>
</defs>
</svg>
