<svg width="239" height="151" viewBox="0 0 239 151" fill="none" xmlns="http://www.w3.org/2000/svg">
<g filter="url(#filter0_b_541_1180)">
<path d="M42.8223 0.782104H16.1083L1.17993 15.6388V135.665L16.1083 150.522H42.8223L46.7508 146.612H88.3932L92.3217 150.522H157.535L161.464 146.612H199.178L203.106 150.522H222.749L237.677 135.665V15.6388L222.749 0.782104H188.963L185.035 4.69177H46.7508L42.8223 0.782104Z" fill="#031A2A"/>
<path d="M42.8223 0.782104H16.1083L1.17993 15.6388V135.665L16.1083 150.522H42.8223L46.7508 146.612H88.3932L92.3217 150.522H157.535L161.464 146.612H199.178L203.106 150.522H222.749L237.677 135.665V15.6388L222.749 0.782104H188.963L185.035 4.69177H46.7508L42.8223 0.782104Z" stroke="#6DCEFF" stroke-opacity="0.3" stroke-width="0.813632"/>
</g>
<path d="M223.074 0H198.918L203.106 3.90967H221.963L234.534 16.4206L234.534 34.4051L238.463 39.0967L238.788 15.31L223.074 0Z" fill="#6DCEFF"/>
<path d="M15.7859 150.564L40.2637 150.564L36.0762 146.655L17.2193 146.655L4.648 134.144L4.64792 116.159L0.394065 111.468L0.394063 135.254L15.7859 150.564Z" fill="#6DCEFF"/>
<path d="M27.7158 126.908H26.5605V116.445H21.581V115.306H32.5488L32.4512 116.445H27.7158V126.908ZM44.3381 126.908H34.7209V115.306H44.4357L44.3381 116.445H35.8926V120.546H43.4593L43.3942 121.685H35.8926V125.786H44.4357L44.3381 126.908ZM58.2617 126.908L56.8785 124.223H49.3443L47.9774 126.908H46.6756L52.6314 115.306H53.6077L59.5635 126.908H58.2617ZM53.1196 116.836L49.865 123.198H56.3578L53.1196 116.836ZM74.6357 126.908H73.4966V117.601L68.7938 124.581H67.8012L63.0984 117.601V126.908H61.9267V115.306H62.9519L68.2893 123.296L73.643 115.306H74.6357V126.908ZM91.5404 122.466V115.306H92.6957V122.466C92.6957 125.786 90.2874 127.136 87.277 127.136C84.234 127.136 81.8094 125.786 81.8094 122.466V115.306H82.981V122.466C82.981 124.988 84.9174 126.03 87.277 126.03C89.6039 126.03 91.5404 124.988 91.5404 122.466ZM96.7242 126.908H95.5526V115.306C97.5704 115.192 99.7835 115.111 100.988 115.111C103.933 115.111 106.097 115.599 106.097 118.967C106.097 122.336 103.933 122.824 100.988 122.824C100.011 122.824 98.3678 122.775 96.7242 122.694V126.908ZM104.926 118.967C104.926 116.559 103.233 116.234 100.955 116.234C100.011 116.234 98.384 116.299 96.7242 116.38V121.571C98.384 121.652 100.011 121.701 100.955 121.701C103.233 121.701 104.926 121.376 104.926 118.967Z" fill="#6DCEFF"/>
<defs>
<filter id="filter0_b_541_1180" x="-44.1393" y="-44.5372" width="327.136" height="240.378" filterUnits="userSpaceOnUse" color-interpolation-filters="sRGB">
<feFlood flood-opacity="0" result="BackgroundImageFix"/>
<feGaussianBlur in="BackgroundImageFix" stdDeviation="22.4562"/>
<feComposite in2="SourceAlpha" operator="in" result="effect1_backgroundBlur_541_1180"/>
<feBlend mode="normal" in="SourceGraphic" in2="effect1_backgroundBlur_541_1180" result="shape"/>
</filter>
</defs>
</svg>
